<?xml version="1.0" encoding="UTF-8"?>
<svg id="Layer_2" data-name="Layer 2" xmlns="http://www.w3.org/2000/svg" xmlns:xlink="http://www.w3.org/1999/xlink" viewBox="0 0 420.95 379.14">
  <defs>
    <style>
      .cls-1 {
        fill: none;
      }

      .cls-2 {
        fill: #f76c12;
      }

      .cls-3 {
        fill: #1c71a5;
      }

      .cls-4 {
        fill: #ff9b0a;
      }

      .cls-5 {
        fill: #feca0f;
      }

      .cls-6 {
        fill: #ddba06;
      }

      .cls-7 {
        fill: #1785bc;
      }

      .cls-8 {
        fill: #0c71a7;
      }

      .cls-9 {
        fill: url(#linear-gradient);
      }

      .cls-10 {
        fill: #6c53a0;
      }

      .cls-11 {
        fill: #ffbd07;
      }

      .cls-12 {
        fill: #3391c1;
      }

      .cls-13 {
        fill: #ffae03;
      }

      .cls-14 {
        fill: #577d2d;
      }

      .cls-15 {
        fill: #f03532;
      }

      .cls-16 {
        fill: #005585;
      }

      .cls-17 {
        fill: #006299;
      }

      .cls-18 {
        fill: #ec2c3c;
      }

      .cls-19 {
        fill: #b12463;
      }

      .cls-20 {
        clip-path: url(#clippath);
      }

      .cls-21 {
        fill: #f95311;
      }

      .cls-22 {
        fill: #92ab13;
      }
    </style>
    <clipPath id="clippath">
      <path class="cls-1" d="M359.79,47.26c6.52-7.81,6.52-18.82,6.52-18.82l-.11.11c-1.6.85-17.32,9.19-74.95,21.17-6.84,1.39-13.79,2.89-20.74,4.6,10.16-2.89,27.05-13.15,27.05-13.15-24.27,2.67-26.51,1.6-70.25,7.16-38.38,4.92-58.92,26.41-63.4,31.65,9.09-12.08,17.43-19.56,17.43-19.56-24.81,8.12-44.26,25.77-46.61,27.9,5.56-7.38,10.48-11.44,11.65-12.4-36.57,23.85-49.61,52.93-51.86,58.27,4.6-15.18,10.69-23.95,11.76-25.34-32.82,29.94-42.34,79.33-43.09,83.08.43-14.65,2.89-23.31,3.85-26.3-23.95,49.18-15.18,121.25-24.06,150.65C33.89,345.78,0,370.37,0,370.37l4.81,6.31,1.93,2.46.32-.32c30.04-23.42,72.6-35.72,111.09-31.76,38.49,3.96,67.14-3.64,67.14-3.64-7.16,0-13.79-2.89-13.79-2.89,33.79-.97,68.54-16.89,68.54-16.89,0,0,28.87-11.76,43.84-27.59-1.28.43-11.97,4.06-33.36,5.45,0,0,41.49-7.38,63.09-41.8-1.18,1.18-8.99,8.02-31.76,12.19,5.45-1.6,35.18-11.65,53.78-41.27-1.39,1.28-9.41,7.7-29.4,12.72,2.24-1.07,32.29-15.4,45.33-51.11-.32.43-2.24,2.67-6.84,5.99,1.28-1.71,11.97-16.25,21.6-42.34,0,0-21.07,24.91-66.72,35.6,5.99-2.03,11.65-4.06,16.68-6.31,46.83-20.64,64.9-65.97,65.97-68.86-.53.75-5.02,5.88-15.82,13.47,24.7-23.74,33.57-63.94,34.64-68.86l.11-.53c6.31-11.33,9.3-19.25,9.3-19.25l-13.8,7.91c10.26-14.43,18.71-30.69,24.16-48.86l.11-.22c-22.45,20.32-40.74,34.86-61.16,47.26"/>
    </clipPath>
    <linearGradient id="linear-gradient" x1="-2146.25" y1="1366.16" x2="-2142.88" y2="1366.16" gradientTransform="translate(-102249.61 161020.43) rotate(90) scale(75 -75)" gradientUnits="userSpaceOnUse">
      <stop offset="0" stop-color="#005585"/>
      <stop offset=".28" stop-color="#b12463"/>
      <stop offset=".56" stop-color="#ff9b0a"/>
      <stop offset=".79" stop-color="#feca0f"/>
      <stop offset="1" stop-color="#0c71a7"/>
    </linearGradient>
  </defs>
  <g id="Layer_1-2" data-name="Layer 1">
    <g>
      <g class="cls-20">
        <rect class="cls-9" x="-71.08" y="-87.22" width="563.12" height="553.59" transform="translate(-71.09 158.58) rotate(-35.73)"/>
      </g>
      <path class="cls-8" d="M171.5,340.54s6.63,2.89,13.79,2.89c0,0-28.65,7.59-67.14,3.64s-81.05,8.34-111.09,31.76c3.31-3.1,30.9-28.76,70.67-45.55,42.55-17.86,105.32-3.42,162.31-9.62,0,0-34.75,15.93-68.54,16.89"/>
      <path class="cls-14" d="M283.87,296.06c-14.97,15.82-43.84,27.58-43.84,27.58-56.99,6.2-119.75-8.23-162.31,9.62-39.77,16.79-67.36,42.45-70.68,45.55l-.32.32-1.92-2.46,22.88-21.49c4.17-3.96,8.12-8.02,11.87-12.4,36.67-28.76,89.17-50.47,152.25-43.2,24.7,2.89,44.16,2.89,58.7,1.93,21.38-1.39,32.08-5.03,33.36-5.45"/>
      <path class="cls-16" d="M58.49,315.31c-5.03,9.52-11.23,18.39-18.07,26.52l-.32.32-.54.64c-3.74,4.38-7.7,8.45-11.86,12.4l-22.88,21.49-4.81-6.31s33.9-24.59,42.98-54.1c8.87-29.4.11-101.47,24.06-150.65-.96,2.99-3.42,11.65-3.85,26.3v.21c-.21,6.31,0,13.69.75,22.24,3,33.78,7.7,66.29-5.45,100.93"/>
      <path class="cls-13" d="M382.24,116.33c-1.07,2.89-19.14,48.22-65.97,68.86-5.03,2.25-10.69,4.28-16.68,6.31-51.32,16.89-132.16,26.73-169.25,62.66-3.85,3.74-7.49,7.27-11.01,10.69,0,0,4.49-6.42,12.08-15.93l.11-.11.43-.43c6.31-5.56,59.02-51.75,140.81-76.56,49.29-14.97,77.95-30.9,93.55-41.91l.11-.11c10.8-7.59,15.29-12.72,15.82-13.47"/>
      <path class="cls-6" d="M335.62,230.63c-18.61,29.62-48.33,39.67-53.78,41.27l-.64.11c-15.72,2.78-38.49,4.28-70.78,1.71-82.76-6.41-123.39,25.02-130.02,30.79,5.56-5.78,11.33-11.76,17.64-18.28.43-.43.75-.75,1.18-1.07,18.28-18.07,69.82-37.42,142.31-35.92,29.3.53,50.15-2.25,64.58-5.88h.11c20-5.02,28.01-11.44,29.4-12.72"/>
      <path class="cls-5" d="M351.55,192.25c-13.05,35.71-43.09,50.04-45.34,51.11h-.1c-14.44,3.64-35.28,6.42-64.58,5.88-72.49-1.5-124.03,17.86-142.31,35.92,4.38-4.49,8.98-9.3,14.11-14.33,19.78-20.96,59.88-29.3,131.62-40.42,60.84-9.41,88.42-23.95,99.76-32.18,4.6-3.31,6.52-5.56,6.84-5.99"/>
      <path class="cls-11" d="M366.31,155.89c-9.62,26.09-20.31,40.63-21.6,42.34-11.33,8.23-38.92,22.77-99.75,32.18-71.75,11.12-111.84,19.46-131.62,40.42l5.99-5.99c3.53-3.42,7.16-6.95,11.01-10.69,37.1-35.92,117.93-45.76,169.26-62.65,45.66-10.69,66.72-35.6,66.72-35.6"/>
      <path class="cls-21" d="M420.84.22c-5.45,18.18-13.9,34.43-24.16,48.86-24.7,35.07-59.98,59.66-89.28,75.38-.64.43-1.28.75-1.92,1.18-28.87,15.29-51.32,22.02-51.32,22.02-50.15,17.64-84.79,25.66-138.99,101.79-1.6,2.25-3.21,4.49-4.81,6.63,58.49-90.45,105.1-123.92,192.14-160.91C383.63,60.52,418.7,3.74,420.84.22"/>
      <path class="cls-18" d="M420.95,0l-.11.21c-2.14,3.53-37.21,60.31-118.36,94.95-87.03,36.99-133.65,70.46-192.13,160.91l-.22.43c-13.15,18.17-24.81,33.25-34.75,45.44,6.09-10.48,31.43-54.85,53.24-94.3,24.81-45.12,54.74-88.42,133.65-117.08,43.73-15.82,72.28-27.91,97.51-43.3C380.21,34.86,398.49,20.32,420.95,0"/>
      <path class="cls-22" d="M313.6,259.71c-21.6,34.43-63.08,41.8-63.08,41.8-14.54.96-34,.96-58.7-1.92-63.08-7.27-115.58,14.43-152.25,43.2l.53-.64.32-.32.54-.53c14.65-11.98,25.98-23.09,38.49-35.92,0,0,.32-.32.96-.86,6.63-5.77,47.26-37.21,130.02-30.79,32.29,2.57,55.06,1.07,70.78-1.71l.64-.11c22.77-4.17,30.58-11.01,31.76-12.19"/>
      <path class="cls-10" d="M366.2,28.55c-1.17,1.6-13.05,15.18-90.03,39.99-82.01,26.62-111.52,39.99-148.3,108.63-36.78,68.64-37.1,97.83-75.7,152.15-5.67,6.31-9.52,10.26-11.23,11.98l-.54.53c6.85-8.12,13.05-17,18.07-26.51,2.67-4.71,4.92-9.52,7.05-14.54,4.92-11.55,10.91-26.73,18.07-46.41l.21-.64c5.67-15.5,11.98-33.89,19.03-55.28.54-1.39.96-2.89,1.5-4.28.11-.64.43-1.28.64-2.14,8.34-23.31,19.03-42.77,31.44-58.91,35.5-46.19,85.11-66.61,133.43-78.59l.64-.21c6.95-1.71,13.9-3.21,20.74-4.6,57.63-11.98,73.35-20.32,74.95-21.17"/>
      <path class="cls-4" d="M401.06,60.95c-1.07,4.92-9.94,45.12-34.64,68.86l-.11.11c-15.61,11.01-44.27,26.94-93.55,41.91-81.79,24.81-134.5,71-140.81,76.56,4.49-5.56,10.05-12.4,16.57-19.46l.85-.86c45.12-46.61,140.38-71.21,189.57-100.08,31.01-18.18,51.22-47.58,62.12-67.04"/>
      <path class="cls-17" d="M106.28,108.85c-1.07,1.39-7.16,10.16-11.76,25.34-.11.53-.22.85-.22.85-1.71,5.24-2.99,11.33-3.96,18.18-3.96,28.44,2.89,67.68-6.52,100.51l-.21.64c-7.16,19.67-13.15,34.85-18.07,46.4-2.14,5.03-4.38,9.84-7.06,14.54,13.15-34.64,8.45-67.14,5.45-100.93-.75-8.55-.96-15.93-.75-22.24v-.21c.75-3.74,10.26-53.14,43.09-83.08"/>
      <path class="cls-3" d="M146.37,75.92c-1.17.96-6.1,5.03-11.66,12.4l-.21.22c-4.06,5.56-8.45,12.94-12.08,22.24-8.55,22.35-12.4,66.19-17.43,81.26-.21.85-.53,1.5-.64,2.14-.53,1.39-.96,2.89-1.5,4.28-7.06,21.38-13.37,39.77-19.03,55.28,9.41-32.83,2.57-72.07,6.52-100.5.96-6.85,2.24-12.94,3.96-18.18,0,0,.11-.32.21-.86,2.24-5.34,15.29-34.43,51.86-58.27"/>
      <path class="cls-7" d="M181.34,60.41s-8.34,7.48-17.43,19.57c-.64.75-.96,1.17-.96,1.17-3.64,4.71-7.38,10.16-10.69,16.14-8.98,16.04-12.08,27.05-15.82,35.82-12.4,16.14-23.09,35.6-31.44,58.91,5.03-15.07,8.88-58.91,17.43-81.26,3.63-9.3,8.02-16.68,12.08-22.24l.21-.22c2.35-2.14,21.81-19.78,46.62-27.9"/>
      <path class="cls-12" d="M297.56,41.17s-16.89,10.26-27.05,13.15l-.64.21c-48.33,11.98-97.94,32.4-133.44,78.59,3.74-8.77,6.85-19.78,15.82-35.82,3.31-5.99,7.06-11.44,10.69-16.14,0,0,.32-.43.96-1.18,4.49-5.24,25.02-26.73,63.4-31.65,43.73-5.56,45.98-4.49,70.25-7.16"/>
      <path class="cls-15" d="M305.47,125.63c-31.11,18.93-55.92,28.23-100.4,54.64-20.74,12.29-40.52,31.11-55.71,47.79l-.85.85c-6.52,7.06-12.08,13.9-16.57,19.46l-.43.43-.1.1c-7.59,9.52-12.08,15.93-12.08,15.93l-5.99,5.99c-5.13,5.03-9.73,9.84-14.11,14.33-.43.32-.75.64-1.17,1.07-6.31,6.52-12.08,12.51-17.64,18.28-.64.53-.96.85-.96.85-12.51,12.83-23.84,23.95-38.49,35.92,1.71-1.71,5.56-5.67,11.23-11.97,5.88-6.52,13.68-15.61,23.2-27.37,9.94-12.19,21.6-27.27,34.75-45.44l.22-.43c1.6-2.14,3.21-4.38,4.81-6.63,54.21-76.13,88.85-84.15,139-101.79,0,0,22.45-6.73,51.32-22.02"/>
      <path class="cls-19" d="M366.31,28.44s0,11.01-6.52,18.82c-25.23,15.4-53.78,27.48-97.51,43.3-78.9,28.65-108.84,71.95-133.65,117.08-21.81,39.45-47.15,83.83-53.24,94.3-9.52,11.76-17.32,20.85-23.2,27.37,38.6-54.31,38.92-83.51,75.7-152.15,36.78-68.64,66.29-82.01,148.3-108.63,76.98-24.8,88.85-38.38,90.03-39.99l.11-.11Z"/>
      <path class="cls-2" d="M410.47,41.17s-2.99,7.91-9.3,19.25l-.11.53c-10.9,19.46-31.11,48.86-62.12,67.04-49.18,28.87-144.45,53.46-189.57,100.08,15.19-16.68,34.96-35.5,55.71-47.79,44.48-26.41,69.28-35.71,100.4-54.63.64-.43,1.28-.75,1.92-1.18,29.3-15.72,64.58-40.31,89.28-75.38l13.79-7.91Z"/>
    </g>
  </g>
</svg>